<?xml version="1.0" encoding="utf-8"?>
<!-- Generator: Adobe Illustrator 24.1.2, SVG Export Plug-In . SVG Version: 6.00 Build 0)  -->
<svg version="1.1" id="Layer_1" xmlns="http://www.w3.org/2000/svg" xmlns:xlink="http://www.w3.org/1999/xlink" x="0px" y="0px"
	 viewBox="0 0 122.9 122.9" style="enable-background:new 0 0 122.9 122.9;" xml:space="preserve">
<style type="text/css">
	.st0{fill-rule:evenodd;clip-rule:evenodd;fill:#003057;}
</style>
<g>
	<path class="st0" d="M72.5,33.6L44.6,61.4l27.9,27.9V33.6L72.5,33.6z M122.9,104.3V18.5h0c0-5.1-2.1-9.7-5.4-13.1
		c-3.3-3.3-7.9-5.4-13-5.4v0H18.5v0C13.4,0,8.8,2.1,5.4,5.5C2.1,8.8,0,13.4,0,18.5h0v85.8h0c0,5.1,2.1,9.8,5.4,13.1
		c3.3,3.3,7.9,5.4,13,5.4v0h85.8v0c5.1,0,9.8-2.1,13.1-5.4C120.8,114.1,122.8,109.5,122.9,104.3L122.9,104.3L122.9,104.3
		L122.9,104.3z M108.8,18.5v85.8h0c0,1.2-0.5,2.3-1.4,3.2c-0.8,0.8-1.9,1.3-3.1,1.3v0H18.5v0c-1.2,0-2.3-0.5-3.2-1.4
		c-0.8-0.8-1.3-1.9-1.3-3.1h0V18.5h0c0-1.2,0.5-2.3,1.3-3.2c0.8-0.8,1.9-1.3,3.2-1.3v0h85.8v0c1.2,0,2.3,0.5,3.2,1.3
		C108.3,16.2,108.9,17.3,108.8,18.5L108.8,18.5L108.8,18.5L108.8,18.5L108.8,18.5z"/>
</g>
</svg>
