<?xml version="1.0" encoding="utf-8"?>
<!-- Generator: Adobe Illustrator 24.1.2, SVG Export Plug-In . SVG Version: 6.00 Build 0)  -->
<svg version="1.1" id="Layer_1" xmlns="http://www.w3.org/2000/svg" xmlns:xlink="http://www.w3.org/1999/xlink" x="0px" y="0px"
	 viewBox="0 0 122.9 122.9" style="enable-background:new 0 0 122.9 122.9;" xml:space="preserve">
<style type="text/css">
	.st0{fill:#003057;}
</style>
<g>
	<path class="st0" d="M122.8,18.5c0-5.1-2.1-9.7-5.4-13.1c-3.3-3.3-7.9-5.4-13-5.4v0H18.5v0C13.4,0,8.8,2.1,5.4,5.5
		C2.1,8.8,0,13.4,0,18.5h0v85.8h0c0,5.1,2.1,9.8,5.4,13.1c3.3,3.3,7.9,5.4,13,5.4v0h85.8v0c5.1,0,9.8-2.1,13.1-5.4
		c3.3-3.3,5.4-8,5.4-13h0v0L122.8,18.5L122.8,18.5z M108.8,104.4c0,1.2-0.5,2.3-1.3,3.2c-0.8,0.8-1.9,1.3-3.2,1.3v0H18.5v0
		c-1.2,0-2.3-0.5-3.2-1.4c-0.8-0.8-1.3-1.9-1.3-3.1h0V18.5h0c0-1.2,0.5-2.3,1.3-3.2c0.8-0.8,1.9-1.3,3.2-1.3v0h85.8v0
		c1.2,0,2.3,0.5,3.2,1.3c0.8,0.8,1.3,1.9,1.3,3.2h0v0L108.8,104.4L108.8,104.4z"/>
	<path class="st0" d="M27.4,75.1h68V64.3h-68V75.1z M27.4,91.6h68V80.8h-68V91.6z M27.4,31.3v10.8h68V31.3H27.4z M27.4,58.6h68V47.8
		h-68V58.6z"/>
</g>
</svg>
